<?xml version="1.0" encoding="UTF-8"?>
<svg version="1.1" viewBox="0 0 801 1144" width="1280" height="1280" xmlns="http://www.w3.org/2000/svg">
<path transform="translate(590,35)" d="m0 0h106v1027h-106v-113h-3l-2 5-7 12-10 14-11 13-19 19-17 13-15 10-22 12-28 12-28 9-29 6-22 3-12 1h-43l-29-3-27-5-24-7-15-5-20-9-21-11-14-9-14-10-14-11-16-15-16-16-9-11-12-15-16-24-9-16-8-16-10-23-9-27-7-30-4-25-2-20-1-18v-24l2-28 4-28 6-27 8-26 10-24 8-16 10-18 13-19 10-13 13-15 24-24 11-9 13-10 18-12 21-12 21-10 21-8 19-6 26-6 23-4 31-3h46l31 4 23 5 23 7 24 10 21 11 19 12 25 20 15 14 14 14 7 8 1 3h4zm-247 473-24 3-25 6-18 6-23 11-16 10-14 11-13 12-12 12-11 14-10 14-10 18-8 17-7 19-6 22-5 30-2 26v13l2 30 3 18 6 25 7 20 12 25 10 16 12 16 14 15 9 9 14 11 14 10 22 12 23 9 21 6 21 4 20 2h36l25-3 22-5 24-8 21-10 16-10 14-11 10-9 16-16 13-17 11-17 8-15 10-25 7-23 5-26 3-30v-28l-3-29-5-25-10-30-12-25-10-16-10-13-12-14-15-15-14-11-10-7-19-11-18-8-24-8-26-5-18-2z" fill="#7B0FD4"/>
</svg>
